<?xml version="1.0" encoding="UTF-8" standalone="no"?>
<!-- Created with Inkscape (http://www.inkscape.org/) -->

<svg
   xmlns:dc="http://purl.org/dc/elements/1.1/"
   xmlns:cc="http://creativecommons.org/ns#"
   xmlns:rdf="http://www.w3.org/1999/02/22-rdf-syntax-ns#"
   xmlns:svg="http://www.w3.org/2000/svg"
   xmlns="http://www.w3.org/2000/svg"
   xmlns:sodipodi="http://sodipodi.sourceforge.net/DTD/sodipodi-0.dtd"
   xmlns:inkscape="http://www.inkscape.org/namespaces/inkscape"
   width="82.849518mm"
   height="138.09877mm"
   viewBox="0 0 82.849518 138.09877"
   version="1.1"
   id="svg1074"
   inkscape:version="0.92.2 (5c3e80d, 2017-08-06)"
   sodipodi:docname="FoamBezels.svg">
  <defs
     id="defs1068" />
  <sodipodi:namedview
     id="base"
     pagecolor="#ffffff"
     bordercolor="#666666"
     borderopacity="1.0"
     inkscape:pageopacity="0.0"
     inkscape:pageshadow="2"
     inkscape:zoom="1.4123047"
     inkscape:cx="240.18187"
     inkscape:cy="199.29516"
     inkscape:document-units="mm"
     inkscape:current-layer="layer1"
     showgrid="false"
     fit-margin-top="0"
     fit-margin-left="0"
     fit-margin-right="0"
     fit-margin-bottom="0"
     inkscape:window-width="1920"
     inkscape:window-height="1147"
     inkscape:window-x="-8"
     inkscape:window-y="-8"
     inkscape:window-maximized="1" />
  <metadata
     id="metadata1071">
    <rdf:RDF>
      <cc:Work
         rdf:about="">
        <dc:format>image/svg+xml</dc:format>
        <dc:type
           rdf:resource="http://purl.org/dc/dcmitype/StillImage" />
        <dc:title></dc:title>
      </cc:Work>
    </rdf:RDF>
  </metadata>
  <g
     inkscape:label="Layer 1"
     inkscape:groupmode="layer"
     id="layer1"
     transform="translate(-10.343481,-63.464746)">
    <g
       transform="matrix(-1,0,0,1,212.15149,-51.470377)"
       id="g3668-8-3-4"
       style="stroke:#000000;stroke-opacity:1">
      <g
         style="stroke:#000000;stroke-opacity:1"
         id="g877-6-1-8"
         transform="translate(106.18584,30.563843)">
        <g
           style="stroke:#000000;stroke-opacity:1"
           id="g2175-1-4-5">
          <rect
             rx="0.83569175"
             ry="0.83569175"
             y="88.598976"
             x="24.02211"
             height="5.4000001"
             width="17.9"
             id="rect2007-4-7-8"
             style="opacity:1;vector-effect:none;fill:none;fill-opacity:0.5534884;fill-rule:evenodd;stroke:#000000;stroke-width:0.1;stroke-linecap:butt;stroke-linejoin:round;stroke-miterlimit:4;stroke-dasharray:none;stroke-dashoffset:0;stroke-opacity:1" />
          <rect
             rx="0.83569175"
             ry="0.83569175"
             y="114.49898"
             x="24.022112"
             height="5.4000001"
             width="17.9"
             id="rect2007-6-9-9-77"
             style="opacity:1;vector-effect:none;fill:none;fill-opacity:0.5534884;fill-rule:evenodd;stroke:#000000;stroke-width:0.1;stroke-linecap:butt;stroke-linejoin:round;stroke-miterlimit:4;stroke-dasharray:none;stroke-dashoffset:0;stroke-opacity:1" />
          <rect
             rx="0.83569175"
             ry="0.83569175"
             y="140.39899"
             x="24.022112"
             height="5.4000001"
             width="17.9"
             id="rect2007-6-7-4-0-4"
             style="opacity:1;vector-effect:none;fill:none;fill-opacity:0.5534884;fill-rule:evenodd;stroke:#000000;stroke-width:0.1;stroke-linecap:butt;stroke-linejoin:round;stroke-miterlimit:4;stroke-dasharray:none;stroke-dashoffset:0;stroke-opacity:1" />
          <rect
             transform="rotate(-90)"
             rx="0.83569175"
             ry="0.83569175"
             y="17.322109"
             x="-113.19897"
             height="5.4000001"
             width="17.9"
             id="rect2007-9-8-3-7"
             style="opacity:1;vector-effect:none;fill:none;fill-opacity:0.5534884;fill-rule:evenodd;stroke:#000000;stroke-width:0.1;stroke-linecap:butt;stroke-linejoin:round;stroke-miterlimit:4;stroke-dasharray:none;stroke-dashoffset:0;stroke-opacity:1" />
          <rect
             transform="rotate(-90)"
             rx="0.83569175"
             ry="0.83569175"
             y="43.222115"
             x="-113.19897"
             height="5.4000001"
             width="17.9"
             id="rect2007-6-4-6-7-2"
             style="opacity:1;vector-effect:none;fill:none;fill-opacity:0.5534884;fill-rule:evenodd;stroke:#000000;stroke-width:0.1;stroke-linecap:butt;stroke-linejoin:round;stroke-miterlimit:4;stroke-dasharray:none;stroke-dashoffset:0;stroke-opacity:1" />
          <rect
             transform="rotate(-90)"
             rx="0.83569175"
             ry="0.83569175"
             y="17.322113"
             x="-139.09898"
             height="5.4000001"
             width="17.9"
             id="rect2007-9-6-6-0-2"
             style="opacity:1;vector-effect:none;fill:none;fill-opacity:0.5534884;fill-rule:evenodd;stroke:#000000;stroke-width:0.1;stroke-linecap:butt;stroke-linejoin:round;stroke-miterlimit:4;stroke-dasharray:none;stroke-dashoffset:0;stroke-opacity:1" />
          <rect
             transform="rotate(-90)"
             rx="0.83569175"
             ry="0.83569175"
             y="43.222118"
             x="-139.09898"
             height="5.4000001"
             width="17.9"
             id="rect2007-6-4-5-6-4-9"
             style="opacity:1;vector-effect:none;fill:none;fill-opacity:0.5534884;fill-rule:evenodd;stroke:#000000;stroke-width:0.1;stroke-linecap:butt;stroke-linejoin:round;stroke-miterlimit:4;stroke-dasharray:none;stroke-dashoffset:0;stroke-opacity:1" />
        </g>
        <rect
           style="opacity:1;vector-effect:none;fill:none;fill-opacity:0.5534884;fill-rule:evenodd;stroke:#000000;stroke-width:0.1;stroke-linecap:butt;stroke-linejoin:round;stroke-miterlimit:4;stroke-dasharray:none;stroke-dashoffset:0;stroke-opacity:1"
           id="rect831-1-1-7"
           width="40.298923"
           height="65.555397"
           x="12.822652"
           y="84.42128"
           ry="4.0856051"
           rx="4.0856051" />
      </g>
      <path
         inkscape:connector-curvature="0"
         id="path3652-0-1-2"
         d="m 143.10795,133.76283 c 0,2.18152 -1.76847,3.95 -3.95,3.95 -2.18152,0 -3.95,-1.76848 -3.95,-3.95 0,-2.18152 1.76848,-3.95 3.95,-3.95 2.18153,0 3.95,1.76848 3.95,3.95 z"
         style="opacity:1;vector-effect:none;fill:none;fill-opacity:0.5534884;fill-rule:evenodd;stroke:#000000;stroke-width:0.10000001;stroke-linecap:butt;stroke-linejoin:round;stroke-miterlimit:4;stroke-dasharray:none;stroke-dashoffset:0;stroke-opacity:1" />
      <path
         inkscape:connector-curvature="0"
         id="path3645-0-4-27"
         d="m 143.10795,161.76283 c 0,2.18152 -1.76847,3.94997 -3.95,3.94997 -2.18152,0 -3.95,-1.76845 -3.95,-3.94997 0,-2.18155 1.76848,-3.95 3.95,-3.95 2.18153,0 3.95,1.76845 3.95,3.95 z"
         style="opacity:1;vector-effect:none;fill:none;fill-opacity:0.5534884;fill-rule:evenodd;stroke:#000000;stroke-width:0.10000001;stroke-linecap:butt;stroke-linejoin:round;stroke-miterlimit:4;stroke-dasharray:none;stroke-dashoffset:0;stroke-opacity:1" />
    </g>
    <path
       inkscape:connector-curvature="0"
       id="path3645-0-4-27-4-4"
       style="opacity:1;vector-effect:none;fill:none;fill-opacity:0.5534884;fill-rule:evenodd;stroke:#0000ff;stroke-width:0.10000001;stroke-linecap:butt;stroke-linejoin:round;stroke-miterlimit:4;stroke-dasharray:none;stroke-dashoffset:0;stroke-opacity:1"
       d="m 26.592951,110.29246 c 0,2.18152 1.76847,3.94997 3.95,3.94997 2.181519,0 3.95,-1.76845 3.95,-3.94997 0,-2.18155 -1.768481,-3.95 -3.95,-3.95 -2.18153,0 -3.95,1.76845 -3.95,3.95 z m 0,-28.000004 c 0,2.18152 1.76847,3.95 3.95,3.95 2.181519,0 3.95,-1.76848 3.95,-3.95 0,-2.18152 -1.768481,-3.95 -3.95,-3.95 -2.18153,0 -3.95,1.76848 -3.95,3.95 z M 14.479081,63.514749 h 32.12772 c 2.26342,0 4.0856,1.82218 4.0856,4.085605 v 57.384186 c 0,2.26342 -1.82218,4.0856 -4.0856,4.0856 h -32.12772 c -2.263419,0 -4.0856,-1.82218 -4.0856,-4.0856 V 67.600354 c 0,-2.263425 1.822181,-4.085605 4.0856,-4.085605 z m 27.563871,53.842001 v -16.22861 c 0,-0.46297 0.372719,-0.83569 0.835689,-0.83569 h 1.22862 c 0.46297,0 0.835691,0.37272 0.835691,0.83569 v 16.22861 c 0,0.46298 -0.372721,0.8357 -0.835691,0.8357 h -1.22862 c -0.46297,0 -0.835689,-0.37272 -0.835689,-0.8357 z m 0,-25.9 V 75.228129 c 0,-0.462973 0.372719,-0.835691 0.835689,-0.835691 h 1.22862 c 0.46297,0 0.835691,0.372718 0.835691,0.835691 V 91.45675 c 0,0.462971 -0.372721,0.835689 -0.835691,0.835689 h -1.22862 c -0.46297,0 -0.835689,-0.372718 -0.835689,-0.835689 z m -25.900011,0 V 75.228129 c 0,-0.462973 0.37272,-0.835691 0.83569,-0.835691 h 1.22862 c 0.46297,0 0.83569,0.372718 0.83569,0.835691 V 91.45675 c 0,0.462971 -0.37272,0.835689 -0.83569,0.835689 h -1.22862 c -0.46297,0 -0.83569,-0.372718 -0.83569,-0.835689 z m 0,25.9 v -16.22861 c 0,-0.46297 0.37272,-0.83569 0.8357,-0.83569 h 1.22862 c 0.46297,0 0.83569,0.37272 0.83569,0.83569 v 16.22861 c 0,0.46298 -0.37272,0.8357 -0.83569,0.8357 h -1.22862 c -0.46298,0 -0.8357,-0.37272 -0.8357,-0.8357 z m 6.28569,-48.414304 h 16.22862 c 0.462971,0 0.83569,0.372719 0.83569,0.835692 v 1.228617 c 0,0.462973 -0.372719,0.835691 -0.83569,0.835691 h -16.22862 c -0.46297,0 -0.83569,-0.372718 -0.83569,-0.835691 v -1.228617 c 0,-0.462973 0.37272,-0.835692 0.83569,-0.835692 z m 0,25.900005 h 16.22862 c 0.462971,0 0.83569,0.372719 0.83569,0.835689 v 1.228619 c 0,0.462971 -0.372719,0.835692 -0.83569,0.835692 h -16.22862 c -0.46297,0 -0.83569,-0.372721 -0.83569,-0.835692 V 95.67814 c 0,-0.46297 0.37272,-0.835689 0.83569,-0.835689 z m 0,25.899999 h 16.22862 c 0.462971,0 0.83569,0.37272 0.83569,0.83569 v 1.22862 c 0,0.46297 -0.372719,0.83569 -0.83569,0.83569 h -16.22862 c -0.46297,0 -0.83569,-0.37272 -0.83569,-0.83569 v -1.22862 c 0,-0.46297 0.37272,-0.83569 0.83569,-0.83569 z" />
    <path
       id="path1836-1"
       style="opacity:1;vector-effect:none;fill:none;fill-opacity:1;fill-rule:evenodd;stroke:#0000ff;stroke-width:0.2;stroke-linecap:round;stroke-linejoin:round;stroke-miterlimit:4;stroke-dasharray:none;stroke-dashoffset:0;stroke-opacity:1"
       d="m 28.103219,175.88266 a 2.6500003,2.6500003 0 0 1 -2.65,2.65 2.6500003,2.6500003 0 0 1 -2.65,-2.65 2.6500003,2.6500003 0 0 1 2.65,-2.65 2.6500003,2.6500003 0 0 1 2.65,2.65 z m 0,-28.35874 a 2.6500003,2.6500003 0 0 1 -2.65,2.64999 2.6500003,2.6500003 0 0 1 -2.65,-2.64999 2.6500003,2.6500003 0 0 1 2.65,-2.65002 2.6500003,2.6500003 0 0 1 2.65,2.65002 z m 1.75,10.26101 a 4.4000002,4.4000002 0 0 1 -4.4,4.40001 4.4000002,4.4000002 0 0 1 -4.4,-4.40001 4.4000002,4.4000002 0 0 1 4.4,-4.40001 4.4000002,4.4000002 0 0 1 4.4,4.40001 z m -4.35116,-13.89981 a 11.9,13.9 0 0 0 -11.90005,13.89992 11.9,13.9 0 0 0 4.49998,10.86756 v 7.94318 a 11.9,13.9 0 0 0 -4.59765,10.96781 11.9,13.9 0 0 0 11.89953,13.89992 11.9,13.9 0 0 0 11.90005,-13.89992 11.9,13.9 0 0 0 -4.4018,-10.78073 v -8.11269 a 11.9,13.9 0 0 0 4.49999,-10.88513 11.9,13.9 0 0 0 -11.90005,-13.89992 z m 4.35116,43.67847 a 4.4000002,4.4000002 0 0 1 -4.4,4.4 4.4000002,4.4000002 0 0 1 -4.4,-4.4 4.4000002,4.4000002 0 0 1 4.4,-4.40001 4.4000002,4.4000002 0 0 1 4.4,4.40001 z"
       inkscape:connector-curvature="0" />
    <path
       id="path1836-1-6"
       style="opacity:1;vector-effect:none;fill:none;fill-opacity:1;fill-rule:evenodd;stroke:#000000;stroke-width:0.2;stroke-linecap:round;stroke-linejoin:round;stroke-miterlimit:4;stroke-dasharray:none;stroke-dashoffset:0;stroke-opacity:1"
       d="m 64.820475,157.78493 c 0,2.43005 -1.96995,4.4 -4.399999,4.4 -2.43005,0 -4.4,-1.96995 -4.4,-4.4 0,-2.43005 1.96995,-4.4 4.4,-4.4 2.430049,0 4.399999,1.96995 4.399999,4.4 z m -4.35116,-13.89982 c -6.572178,-3e-5 -11.90001,6.22317 -11.90005,13.89992 0.005,4.234 1.66127,8.23465 4.49998,10.86757 v 7.94318 c -2.89902,2.6317 -4.59569,6.67916 -4.59765,10.96781 4e-5,7.67651 5.327561,13.89961 11.899531,13.89992 6.572178,3e-5 11.900011,-6.22317 11.90005,-13.89992 -0.003,-4.18429 -1.620141,-8.14421 -4.401801,-10.78075 v -8.11268 c 2.842839,-2.63675 4.499869,-6.64496 4.499991,-10.88513 -4e-5,-7.67675 -5.32787,-13.89995 -11.900051,-13.89992 z m 4.35116,43.67848 c -1e-5,2.43005 -1.96995,4.4 -4.399999,4.4 -2.43005,0 -4.399989,-1.96995 -4.4,-4.4 -1.1e-5,-2.43006 1.969939,-4.40001 4.4,-4.40001 2.43006,0 4.40001,1.96995 4.399999,4.40001 z"
       inkscape:connector-curvature="0"
       sodipodi:nodetypes="ssssscccccccccccscsss" />
  </g>
</svg>
