<?xml version="1.0" encoding="UTF-8" standalone="no"?>
<!-- Created with Inkscape (http://www.inkscape.org/) -->

<svg
   xmlns:dc="http://purl.org/dc/elements/1.1/"
   xmlns:cc="http://creativecommons.org/ns#"
   xmlns:rdf="http://www.w3.org/1999/02/22-rdf-syntax-ns#"
   xmlns:svg="http://www.w3.org/2000/svg"
   xmlns="http://www.w3.org/2000/svg"
   xmlns:sodipodi="http://sodipodi.sourceforge.net/DTD/sodipodi-0.dtd"
   xmlns:inkscape="http://www.inkscape.org/namespaces/inkscape"
   width="260.58685mm"
   height="171.65181mm"
   viewBox="0 0 260.58685 171.65181"
   version="1.1"
   id="svg2335"
   inkscape:version="0.92.2 (5c3e80d, 2017-08-06)"
   sodipodi:docname="Frame.svg">
  <defs
     id="defs2329" />
  <sodipodi:namedview
     id="base"
     pagecolor="#ffffff"
     bordercolor="#666666"
     borderopacity="1.0"
     inkscape:pageopacity="0.0"
     inkscape:pageshadow="2"
     inkscape:zoom="0.87615423"
     inkscape:cx="786.51438"
     inkscape:cy="323.63754"
     inkscape:document-units="mm"
     inkscape:current-layer="layer1"
     showgrid="false"
     fit-margin-top="0"
     fit-margin-left="0"
     fit-margin-right="0"
     fit-margin-bottom="0"
     inkscape:window-width="1920"
     inkscape:window-height="1147"
     inkscape:window-x="-8"
     inkscape:window-y="-8"
     inkscape:window-maximized="1" />
  <metadata
     id="metadata2332">
    <rdf:RDF>
      <cc:Work
         rdf:about="">
        <dc:format>image/svg+xml</dc:format>
        <dc:type
           rdf:resource="http://purl.org/dc/dcmitype/StillImage" />
        <dc:title></dc:title>
      </cc:Work>
    </rdf:RDF>
  </metadata>
  <g
     inkscape:label="Layer 1"
     inkscape:groupmode="layer"
     id="layer1"
     transform="translate(99.580539,-50.369596)">
    <path
       style="opacity:0.98000004;vector-effect:none;fill:none;fill-opacity:1;fill-rule:evenodd;stroke:#000000;stroke-width:0.1;stroke-linecap:round;stroke-linejoin:round;stroke-miterlimit:4;stroke-dasharray:none;stroke-dashoffset:0;stroke-opacity:1"
       d="m 160.02817,145.22888 c -0.80732,-15.77422 -13.86678,-28.41634 -29.85965,-28.41634 v 59.73229 c 15.99271,0 29.05207,-12.64252 29.85965,-28.41654 h -10.13549 c -0.53475,-0.58327 -2.04817,-0.71488 -2.71198,0 h -0.83024 c -1.00333,0 -1.28209,-0.50051 -1.28209,-1.12241 v -0.65457 c 0,-0.62189 0.27876,-1.12243 1.28209,-1.12243 h 0.76409 c 0.23106,0.50659 2.27441,0.57046 2.74505,0 z"
       id="path2454-3-9-6"
       inkscape:connector-curvature="0"
       sodipodi:nodetypes="ccccccssssccc" />
    <path
       style="opacity:0.98000004;vector-effect:none;fill:none;fill-opacity:1;fill-rule:evenodd;stroke:#000000;stroke-width:0.1;stroke-linecap:round;stroke-linejoin:round;stroke-miterlimit:4;stroke-dasharray:none;stroke-dashoffset:0;stroke-opacity:1"
       d="M 160.95631,80.689268 C 160.14898,64.915047 147.08949,52.272922 131.09662,52.272922 v 59.732288 c 15.99272,0 29.0521,-12.642513 29.85969,-28.416532 h -10.13553 c -0.53475,-0.583271 -2.04814,-0.71488 -2.71198,0 h -0.83023 c -1.00333,0 -1.28207,-0.500509 -1.28207,-1.12241 v -0.654571 c 0,-0.62189 0.27874,-1.122429 1.28207,-1.122429 h 0.76409 c 0.23106,0.50659 2.27441,0.57046 2.74505,0 z"
       id="path2454-3-9-6-2"
       inkscape:connector-curvature="0"
       sodipodi:nodetypes="ccccccssssccc" />
    <path
       id="path11238-9"
       style="opacity:0.98000004;vector-effect:none;fill:none;fill-opacity:1;fill-rule:evenodd;stroke:#000000;stroke-width:0.1;stroke-linecap:round;stroke-linejoin:round;stroke-miterlimit:4;stroke-dasharray:none;stroke-dashoffset:0;stroke-opacity:1"
       d="m -53.797928,57.426918 c 1.634299,0 3.479379,1.24748 3.479379,2.797247 v 35.001999 c 0,1.549768 -1.84508,2.797244 -3.479379,2.797244 -1.6343,0 -3.479371,-1.247476 -3.479371,-2.797244 V 60.224165 c 0,-1.549767 1.845071,-2.797247 3.479371,-2.797247 z m 43.03096,0 c 1.6343,0 3.47938,1.24748 3.47938,2.797247 v 35.001999 c 0,1.549768 -1.84508,2.797244 -3.47938,2.797244 -1.634299,0 -3.479371,-1.247476 -3.479371,-2.797244 V 60.224165 c 0,-1.549767 1.845072,-2.797247 3.479371,-2.797247 z m 34.434329,0 c 1.6343,0 3.47938,1.24748 3.47938,2.797247 v 35.001999 c 0,1.549768 -1.84508,2.797244 -3.47938,2.797244 -1.6343,0 -3.47936,-1.247476 -3.47936,-2.797244 V 60.224165 c 0,-1.549767 1.84506,-2.797247 3.47936,-2.797247 z m 42.14239,139.608022 c 0.82842,0 1.50017,0.67174 1.50017,1.50017 0,0.82843 -0.67175,1.50016 -1.50017,1.50017 -0.82843,0 -1.49965,-0.67174 -1.49965,-1.50017 0,-0.82843 0.67122,-1.50017 1.49965,-1.50017 z m -34.99993,0 c 0.82843,0 1.50017,0.67174 1.50017,1.50017 0,0.82843 -0.67174,1.50016 -1.50017,1.50017 -0.82843,0 -1.49965,-0.67174 -1.49965,-1.50017 0,-0.82843 0.67122,-1.50017 1.49965,-1.50017 z m 34.99993,-10.90011 c 2.1539,0 3.90002,1.74611 3.90002,3.90002 0,2.1539 -1.74612,3.90002 -3.90002,3.90002 -2.15392,0 -3.8995,-1.74611 -3.8995,-3.90002 0,-2.15392 1.74558,-3.90002 3.8995,-3.90002 z m -34.99993,0 c 2.15391,0 3.90002,1.74611 3.90002,3.90002 0,2.1539 -1.74611,3.90002 -3.90002,3.90002 -2.15391,0 -3.90002,-1.74611 -3.90002,-3.90002 0,-2.15392 1.74611,-3.90002 3.90002,-3.90002 z m 34.99993,-6.09989 c 0.82842,0 1.50017,0.67174 1.50017,1.50017 0,0.82843 -0.67175,1.50017 -1.50017,1.50017 -0.82843,0 -1.49965,-0.67174 -1.49965,-1.50017 0,-0.82843 0.67122,-1.50017 1.49965,-1.50017 z m -34.99993,0 c 0.82843,0 1.50017,0.67174 1.50017,1.50017 0,0.82843 -0.67174,1.50017 -1.50017,1.50017 -0.82843,0 -1.49965,-0.67174 -1.49965,-1.50017 0,-0.82843 0.67122,-1.50017 1.49965,-1.50017 z m 17.50022,-2.94969 c 2.73381,0 4.95009,2.21577 4.95009,4.94957 0,2.73382 -2.21628,4.95009 -4.95009,4.95009 -2.73381,0 -4.95008,-2.21628 -4.95008,-4.95009 0,-2.73382 2.21627,-4.94957 4.95008,-4.94957 z m -53.485098,19.94969 c 0.828429,0 1.49965,0.67174 1.49965,1.50017 0,0.82843 -0.671221,1.50016 -1.49965,1.50017 -0.828432,0 -1.500172,-0.67174 -1.500172,-1.50017 0,-0.82843 0.67174,-1.50017 1.500172,-1.50017 z m -35.000451,0 c 0.828428,0 1.500168,0.67174 1.500168,1.50017 0,0.82843 -0.67174,1.50016 -1.500168,1.50017 -0.828429,0 -1.499651,-0.67174 -1.499651,-1.50017 0,-0.82843 0.671222,-1.50017 1.499651,-1.50017 z m 35.000451,-10.90011 c 2.153899,0 3.900019,1.74611 3.900019,3.90002 0,2.1539 -1.74612,3.90002 -3.900019,3.90002 -2.15392,0 -3.900022,-1.74611 -3.900022,-3.90002 0,-2.15392 1.746102,-3.90002 3.900022,-3.90002 z m -35.000451,0 c 2.153909,0 3.900019,1.74612 3.900019,3.90002 0,2.15391 -1.74611,3.90002 -3.900019,3.90002 -2.15392,0 -3.90002,-1.7461 -3.90002,-3.90002 0,-2.15391 1.7461,-3.90002 3.90002,-3.90002 z m 35.000451,-6.09989 c 0.828429,0 1.49965,0.67174 1.49965,1.50017 0,0.82843 -0.671221,1.50017 -1.49965,1.50017 -0.828432,0 -1.500172,-0.67174 -1.500172,-1.50017 0,-0.82843 0.67174,-1.50017 1.500172,-1.50017 z m -35.000451,0 c 0.828428,0 1.500168,0.67174 1.500168,1.50017 0,0.82843 -0.67174,1.50017 -1.500168,1.50017 -0.828429,0 -1.499651,-0.67174 -1.499651,-1.50017 0,-0.82843 0.671222,-1.50017 1.499651,-1.50017 z m 17.500219,-2.94969 c 2.733812,0 4.950092,2.21577 4.950092,4.94957 0,2.73382 -2.21628,4.95009 -4.950092,4.95009 -2.73381,0 -4.950079,-2.21628 -4.950079,-4.95009 0,-2.73382 2.216269,-4.94957 4.950079,-4.94957 z M 108.84123,141.16186 c 0.82842,0 1.50017,0.67122 1.50017,1.49965 0,0.82843 -0.67175,1.50017 -1.50017,1.50017 -0.82843,0 -1.50017,-0.67174 -1.50017,-1.50017 0,-0.82843 0.67174,-1.49965 1.50017,-1.49965 z m -34.999929,0 c 0.82843,0 1.50017,0.67122 1.50017,1.49965 0,0.82843 -0.67174,1.50017 -1.50017,1.50017 -0.82843,0 -1.50017,-0.67174 -1.50017,-1.50017 0,-0.82843 0.67174,-1.49965 1.50017,-1.49965 z m 34.999929,-10.90011 c 2.15392,0 3.90002,1.74611 3.90002,3.90002 0,2.1539 -1.7461,3.90002 -3.90002,3.90002 -2.15391,0 -3.90002,-1.74611 -3.90002,-3.90002 0,-2.15392 1.74611,-3.90002 3.90002,-3.90002 z m -34.999929,0 c 2.15391,0 3.90002,1.74612 3.90002,3.90002 0,2.1539 -1.74611,3.90002 -3.90002,3.90002 -2.15391,0 -3.90002,-1.74611 -3.90002,-3.90002 0,-2.15392 1.74611,-3.90002 3.90002,-3.90002 z m 34.999929,-6.09989 c 0.82842,0 1.50017,0.67123 1.50017,1.49965 0,0.82843 -0.67175,1.50017 -1.50017,1.50017 -0.82843,0 -1.50017,-0.67174 -1.50017,-1.50017 0,-0.82842 0.67174,-1.49965 1.50017,-1.49965 z m -34.999929,0 c 0.82843,0 1.50017,0.67123 1.50017,1.49965 0,0.82843 -0.67174,1.50017 -1.50017,1.50017 -0.82843,0 -1.50017,-0.67174 -1.50017,-1.50017 0,-0.82842 0.67174,-1.49965 1.50017,-1.49965 z m 17.50022,-2.9502 c 2.73381,0 4.94957,2.21627 4.94957,4.95008 0,2.73381 -2.21576,4.95009 -4.94957,4.95009 -2.7338,0 -4.95008,-2.21628 -4.95008,-4.95009 0,-2.73382 2.21628,-4.95008 4.95008,-4.95008 z m -61.02418,19.9502 c 0.82843,0 1.50017,0.67122 1.50017,1.49965 0,0.82843 -0.67174,1.50017 -1.50017,1.50017 -0.82843,0 -1.50016,-0.67174 -1.50016,-1.50017 0,-0.82843 0.67173,-1.49965 1.50016,-1.49965 z m -34.999929,0 c 0.828431,0 1.500171,0.67122 1.500171,1.49965 0,0.82843 -0.67174,1.50017 -1.500171,1.50017 -0.828429,0 -1.500159,-0.67174 -1.500159,-1.50017 0,-0.82843 0.67173,-1.49965 1.500159,-1.49965 z m 34.999929,-10.90011 c 2.1539,0 3.90003,1.74612 3.90003,3.90002 0,2.1539 -1.74613,3.90002 -3.90003,3.90002 -2.15391,0 -3.90002,-1.74611 -3.90002,-3.90002 0,-2.15392 1.74611,-3.90002 3.90002,-3.90002 z m -34.999929,0 c 2.153901,0 3.90001898,1.74611 3.90001898,3.90002 0,2.1539 -1.74611798,3.90002 -3.90001898,3.90002 -2.15392,0 -3.900019,-1.74611 -3.900019,-3.90002 0,-2.15392 1.746099,-3.90002 3.900019,-3.90002 z m 34.999929,-6.09989 c 0.82843,0 1.50017,0.67123 1.50017,1.49965 0,0.82843 -0.67174,1.50017 -1.50017,1.50017 -0.82843,0 -1.50016,-0.67174 -1.50016,-1.50017 0,-0.82842 0.67173,-1.49965 1.50016,-1.49965 z m -34.999929,0 c 0.828431,0 1.500171,0.67123 1.500171,1.49965 0,0.82843 -0.67174,1.50017 -1.500171,1.50017 -0.828429,0 -1.500159,-0.67174 -1.500159,-1.50017 0,-0.82842 0.67173,-1.49965 1.500159,-1.49965 z m 17.500229,-2.9502 c 2.73381,0 4.94957,2.21627 4.94957,4.95008 0,2.73381 -2.21576,4.95009 -4.94957,4.95009 -2.73381,0 -4.95009,-2.21628 -4.95009,-4.95009 0,-2.73382 2.21628,-4.95008 4.95009,-4.95008 z m -61.02418,19.9502 c 0.828421,0 1.500161,0.67122 1.500161,1.49965 0,0.82843 -0.67174,1.50017 -1.500161,1.50017 -0.828429,0 -1.500169,-0.67174 -1.500169,-1.50017 0,-0.82843 0.67174,-1.49965 1.500169,-1.49965 z m -34.99993,0 c 0.82843,0 1.50016,0.67122 1.50016,1.49965 0,0.82843 -0.67173,1.50017 -1.50016,1.50017 -0.82844,0 -1.50017,-0.67174 -1.50017,-1.50017 0,-0.82843 0.67173,-1.49965 1.50017,-1.49965 z m 34.99993,-10.90011 c 2.153891,0 3.900019,1.74612 3.900019,3.90002 0,2.1539 -1.746128,3.90002 -3.900019,3.90002 -2.153909,0 -3.900029,-1.74611 -3.900029,-3.90002 0,-2.15392 1.74612,-3.90002 3.900029,-3.90002 z m -34.99993,0 c 2.15391,0 3.90002,1.74611 3.90002,3.90002 0,2.1539 -1.74611,3.90002 -3.90002,3.90002 -2.15392,0 -3.90003,-1.74611 -3.90003,-3.90002 0,-2.15392 1.74611,-3.90002 3.90003,-3.90002 z m 34.99993,-6.09989 c 0.828421,0 1.500161,0.67123 1.500161,1.49965 0,0.82843 -0.67174,1.50017 -1.500161,1.50017 -0.828429,0 -1.500169,-0.67174 -1.500169,-1.50017 0,-0.82842 0.67174,-1.49965 1.500169,-1.49965 z m -34.99993,0 c 0.82843,0 1.50016,0.67123 1.50016,1.49965 0,0.82843 -0.67173,1.50017 -1.50016,1.50017 -0.82844,0 -1.50017,-0.67174 -1.50017,-1.50017 0,-0.82842 0.67173,-1.49965 1.50017,-1.49965 z m 17.499701,-2.9502 c 2.73381,0 4.950089,2.21627 4.950089,4.95008 0,2.73381 -2.216279,4.95009 -4.950089,4.95009 -2.73381,0 -4.949571,-2.21628 -4.949571,-4.95009 0,-2.73382 2.215761,-4.95008 4.949571,-4.95008 z m 115.566589,50.95348 c 0,0.11536 -0.69108,0.20826 -1.54978,0.20826 -0.8587,0 -1.55029,-0.0929 -1.55029,-0.20826 V 57.426918 c 0,-0.21001 0.69159,-0.3793 1.55029,-0.3793 0.8587,0 1.54978,0.16929 1.54978,0.3793 z m -70.984808,0 c 0,0.11536 -0.6916,0.20826 -1.550302,0.20826 -0.8587,0 -1.549768,-0.0929 -1.549768,-0.20826 V 57.426918 c 0,-0.21001 0.691068,-0.3793 1.549768,-0.3793 0.858702,0 1.550302,0.16929 1.550302,0.3793 z M 78.904041,57.426918 c 1.6343,0 3.47886,1.24748 3.47886,2.797247 v 35.001999 c 0,1.549768 -1.84456,2.797244 -3.47886,2.797244 -1.6343,0 -3.47937,-1.247476 -3.47937,-2.797244 V 60.224165 c 0,-1.549767 1.84507,-2.797247 3.47937,-2.797247 z m -43.03148,0 c 1.6343,0 3.47938,1.24748 3.47938,2.797247 v 35.001999 c 0,1.549768 -1.84508,2.797244 -3.47938,2.797244 -1.6343,0 -3.47937,-1.247476 -3.47937,-2.797244 V 60.224165 c 0,-1.549767 1.84507,-2.797247 3.47937,-2.797247 z m 55.46896,-0.3793 c 0.8587,0 1.54978,0.16929 1.54978,0.3793 v 56.535052 c 0,0.21001 -0.69108,0.37879 -1.54978,0.37879 -0.85869,0 -1.55029,-0.16878 -1.55029,-0.37879 V 57.426918 c 0,-0.21001 0.6916,-0.3793 1.55029,-0.3793 z m -78.52388,0 c 0.8587,0 1.54977,0.169297 1.54977,0.379307 v 56.535045 c 0,0.21001 -0.69107,0.37879 -1.54977,0.37879 -0.8587,0 -1.5503,-0.16878 -1.5503,-0.37879 V 57.426925 c 0,-0.21001 0.6916,-0.379307 1.5503,-0.379307 z m -78.524409,0 c 0.8587,0 1.550299,0.16929 1.550299,0.3793 v 56.535052 c 0,0.21001 -0.691599,0.37879 -1.550299,0.37879 -0.8587,0 -1.549771,-0.16878 -1.549771,-0.37879 V 57.426918 c 0,-0.21001 0.691071,-0.3793 1.549771,-0.3793 z m -30.412101,-6.628022 c -1.89004,0 -3.41167,1.521632 -3.41167,3.411672 V 218.55973 c 0,1.89004 1.52163,3.41167 3.41167,3.41167 h 10.1291 v -13.85548 c 0,-1.00333 0.6916,-1.28209 1.5503,-1.28209 0.8587,0 1.54977,0.27876 1.54977,1.28209 V 221.9714 H 108.83606 v -14.38517 c 0,-1.00333 0.6916,-0.7524 1.5503,-0.7524 0.8587,0 1.54978,-0.25093 1.54978,0.7524 v 14.38517 h 9.81748 c 1.89006,0 3.41168,-1.52163 3.41168,-3.41167 V 53.831268 c 0,-1.89004 -1.52162,-3.411672 -3.41168,-3.411672 z m 10.45356,151.564234 h 2.35165 c 0.20729,0 0.37417,0.6467 0.37417,1.44999 0,0.80331 -0.16688,1.45001 -0.37417,1.45001 h -2.35165 c -0.2073,0 -0.37418,-0.6467 -0.37418,-1.45001 0,-0.80329 0.16688,-1.44999 0.37418,-1.44999 z m 194.985679,0 h 2.35165 c 0.20729,0 0.37417,0.6467 0.37417,1.44999 0,0.80331 -0.16688,1.45001 -0.37417,1.45001 h -2.35165 c -0.2073,0 -0.37418,-0.6467 -0.37418,-1.45001 0,-0.80329 0.16688,-1.44999 0.37418,-1.44999 z"
       inkscape:connector-curvature="0"
       sodipodi:nodetypes="ssssssssssssssssssssssscsssscssssssssssssssssssssssssssssscsssscssssssssssssssssssssssssssssssssssssssssssssssssssssssssssssssssssssssssssssssssssssssssssssssssssssssssssssssssssssssssssssssssssssssssssssssssssssssssssssssssssssssssssssssssssssssssscsssccssscsssssssssssssssssss" />
  </g>
</svg>
