<?xml version="1.0" encoding="UTF-8" standalone="no"?>
<!-- Created with Inkscape (http://www.inkscape.org/) -->

<svg
   xmlns:dc="http://purl.org/dc/elements/1.1/"
   xmlns:cc="http://creativecommons.org/ns#"
   xmlns:rdf="http://www.w3.org/1999/02/22-rdf-syntax-ns#"
   xmlns:svg="http://www.w3.org/2000/svg"
   xmlns="http://www.w3.org/2000/svg"
   xmlns:sodipodi="http://sodipodi.sourceforge.net/DTD/sodipodi-0.dtd"
   xmlns:inkscape="http://www.inkscape.org/namespaces/inkscape"
   width="210mm"
   height="297mm"
   viewBox="0 0 210 297"
   version="1.1"
   id="svg1724"
   inkscape:version="0.92.2 (5c3e80d, 2017-08-06)"
   sodipodi:docname="Glides.svg">
  <defs
     id="defs1718" />
  <sodipodi:namedview
     id="base"
     pagecolor="#ffffff"
     bordercolor="#666666"
     borderopacity="1.0"
     inkscape:pageopacity="0.0"
     inkscape:pageshadow="2"
     inkscape:zoom="0.70615234"
     inkscape:cx="282.31159"
     inkscape:cy="478.34553"
     inkscape:document-units="mm"
     inkscape:current-layer="layer1"
     showgrid="false"
     inkscape:window-width="1920"
     inkscape:window-height="1147"
     inkscape:window-x="-8"
     inkscape:window-y="-8"
     inkscape:window-maximized="1" />
  <metadata
     id="metadata1721">
    <rdf:RDF>
      <cc:Work
         rdf:about="">
        <dc:format>image/svg+xml</dc:format>
        <dc:type
           rdf:resource="http://purl.org/dc/dcmitype/StillImage" />
        <dc:title></dc:title>
      </cc:Work>
    </rdf:RDF>
  </metadata>
  <g
     inkscape:label="Layer 1"
     inkscape:groupmode="layer"
     id="layer1">
    <path
       style="opacity:1;vector-effect:none;fill:none;fill-opacity:1;fill-rule:evenodd;stroke:#000000;stroke-width:0.2;stroke-linecap:round;stroke-linejoin:round;stroke-miterlimit:4;stroke-dasharray:none;stroke-dashoffset:0;stroke-opacity:1"
       d="m 85.502819,225.37206 h 2.800344 v 1.25005 h 2.491322 v 2.79983 h -2.491322 v 1.25005 h -2.800344 v 0.70797 h -2.999817 v -1.8575 h -3.300055 v 1.8575 h -2.99982 v 6.32933 h 2.99982 v 4.07416 h 3.300055 v -4.07416 h 2.999817 v 2.82412 h 2.800344 v 1.25004 h 2.491322 v 2.79983 h -2.491322 v 1.25007 h -2.800344 v 2.82462 h -2.999817 v -4.07469 h -3.300055 v 6.19137 h -2.99982 v 1.82158 c 0,1.70699 1.395421,2.82143 3.080949,2.55178 h 3.307807 v -2.64583 h 7.319682 v 2.9311 h 3.637272 v -1.25006 h 2.800348 v 1.25006 h 1.432986 v 2.79982 h -1.432986 v 1.25005 h -2.800348 v -1.25005 h -3.637272 v 4.95009 h 8.297453 c 1.768062,0 3.092592,-1.4224 3.191532,-3.62821 v -10.2092 h -2.944517 v 1.25007 h -2.800348 v -1.25007 h -2.491319 v -2.79983 h 2.491319 v -1.25004 h 2.800348 v 1.25004 h 2.944517 v -25.20001 h -2.944517 v 1.24954 h -2.800348 v -1.24954 h -2.491319 v -2.80034 h 2.491319 v -1.25006 h 2.800348 v 1.25006 h 2.944517 v -3.8592 c 0,-2.20804 -1.425002,-2.32473 -3.191532,-2.3983 H 85.502819 Z"
       id="path9507-1"
       inkscape:connector-curvature="0"
       sodipodi:nodetypes="ccccccccccccccccccccccccccccccccccssccccccccccccccccssccccccccccccccccccccccccsscc" />
    <path
       id="path10099"
       style="opacity:0.98000004;vector-effect:none;fill:none;fill-opacity:1;fill-rule:evenodd;stroke:#000000;stroke-width:0.2;stroke-linecap:round;stroke-linejoin:round;stroke-miterlimit:4;stroke-dasharray:none;stroke-dashoffset:0;stroke-opacity:1"
       d="m 67.751447,251.22932 c 0.828431,0 1.500161,0.67174 1.500161,1.50018 0,0.82842 -0.67173,1.50016 -1.500161,1.50016 -0.82844,0 -1.500169,-0.67174 -1.500169,-1.50016 0,-0.82844 0.671729,-1.50018 1.500169,-1.50018 z m 0,-15.16127 c 0.828431,0 1.500161,0.67174 1.500161,1.50017 0,0.82843 -0.67173,1.50017 -1.500161,1.50017 -0.82844,0 -1.500169,-0.67174 -1.500169,-1.50017 0,-0.82843 0.671729,-1.50017 1.500169,-1.50017 z m -6.247429,-14.23402 10e-6,36.36987 h 12.49484 v -10.94874 h -7.847352 v -6.32927 h 7.847352 v -19.09186 z"
       inkscape:connector-curvature="0"
       sodipodi:nodetypes="ssssssssssccccccccc" />
    <path
       id="path10099-0"
       style="opacity:0.98000004;vector-effect:none;fill:none;fill-opacity:1;fill-rule:evenodd;stroke:#000000;stroke-width:0.2;stroke-linecap:round;stroke-linejoin:round;stroke-miterlimit:4;stroke-dasharray:none;stroke-dashoffset:0;stroke-opacity:1"
       d="m 53.139929,251.22933 c 0.828427,0 1.500165,0.67174 1.500165,1.50018 0,0.82843 -0.671738,1.50017 -1.500165,1.50017 -0.82844,0 -1.500166,-0.67174 -1.500166,-1.50017 0,-0.82844 0.671726,-1.50018 1.500166,-1.50018 z m -1e-6,-15.16127 c 0.828427,0 1.500166,0.67174 1.500166,1.50017 0,0.82843 -0.671739,1.50017 -1.500166,1.50017 -0.828441,0 -1.500166,-0.67174 -1.500166,-1.50017 0,-0.82843 0.671725,-1.50017 1.500166,-1.50017 z m 6.24742,-14.23403 H 46.892504 l 3e-6,38.4865 h 12.494844 z m -4.697267,25.42114 h -3.1 v -6.32927 h 3.1 z"
       inkscape:connector-curvature="0"
       sodipodi:nodetypes="sssssssssscccccccccc" />
    <path
       style="opacity:0.98000004;vector-effect:none;fill:none;fill-opacity:1;fill-rule:evenodd;stroke:#000000;stroke-width:0.2;stroke-linecap:round;stroke-linejoin:round;stroke-miterlimit:4;stroke-dasharray:none;stroke-dashoffset:0;stroke-opacity:1"
       d="m 42.105025,82.462107 v 69.707363 h 12.494844 v -10.94919 h -7.847065 v -9.28523 h 7.847065 V 107.13502 H 46.752804 V 96.262294 h 7.847065 V 82.462107 Z m 6.247682,3.650419 c 0.828429,0 1.500167,0.67174 1.500167,1.500169 0,0.828431 -0.671738,1.500171 -1.500167,1.500171 -0.828442,0 -1.500169,-0.67174 -1.500169,-1.500171 0,-0.828429 0.671727,-1.500169 1.500169,-1.500169 z m 0,59.082194 c 0.828429,0 1.500167,0.67172 1.500167,1.50015 0,0.82843 -0.671738,1.50018 -1.500167,1.50018 -0.828442,0 -1.500169,-0.67175 -1.500169,-1.50018 0,-0.82843 0.671727,-1.50015 1.500169,-1.50015 z"
       id="path10099-4"
       inkscape:connector-curvature="0"
       sodipodi:nodetypes="cccccccccccccssssssssss" />
    <path
       id="path10099-0-9"
       style="opacity:0.98000004;vector-effect:none;fill:none;fill-opacity:1;fill-rule:evenodd;stroke:#000000;stroke-width:0.2;stroke-linecap:round;stroke-linejoin:round;stroke-miterlimit:4;stroke-dasharray:none;stroke-dashoffset:0;stroke-opacity:1"
       d="m 33.973669,145.1947 c 0.82843,0 1.50017,0.67174 1.50017,1.50017 0,0.82843 -0.67174,1.50017 -1.50017,1.50017 -0.82844,0 -1.50016,-0.67174 -1.50016,-1.50017 0,-0.82843 0.67172,-1.50017 1.50016,-1.50017 z m 0,-59.082105 c 0.82843,0 1.50017,0.67174 1.50017,1.500171 0,0.828429 -0.67174,1.500169 -1.50017,1.500169 -0.82844,0 -1.50016,-0.67174 -1.50016,-1.500169 0,-0.828431 0.67172,-1.500171 1.50016,-1.500171 z m 6.247423,-3.650702 H 27.726249 V 154.2859 H 40.221093 Z M 35.52383,141.22053 H 32.423829 V 96.262096 h 3.100001 z"
       inkscape:connector-curvature="0"
       sodipodi:nodetypes="sssssssssscccccccccc" />
    <path
       id="rect11095-2"
       style="opacity:1;vector-effect:none;fill:none;fill-opacity:1;fill-rule:evenodd;stroke:#000000;stroke-width:0.2;stroke-linecap:round;stroke-linejoin:round;stroke-miterlimit:4;stroke-dasharray:none;stroke-dashoffset:0;stroke-opacity:1"
       d="m 61.95841,105.16568 h 3 v 24.80001 h -3 z m -3.46e-4,-46.368787 v 21.69583 -0.0822 h 2.999816 v 0.0822 h 5.3e-4 v 2.741962 h 2.799828 v 1.25005 h 2.491322 v 2.799832 h -2.491322 v 1.250047 H 64.95841 v 5.758302 h -3.000333 v -2.933671 -4.074678 h -3.299539 v 7.008349 h -3.000336 v 44.958504 h 2.999817 v 4.07417 h 3.300058 v -4.07417 h 2.999817 v 2.82412 h 2.800344 v 1.25005 h 2.491322 v 2.79982 h -2.491322 v 1.25006 h -2.800344 v 2.82463 h -2.999817 v -4.07469 h -3.300058 v 6.19136 h -2.999817 v 3.4091 c 0,1.70698 1.395423,2.82141 3.080951,2.55178 h 3.307808 v -2.64584 h 7.319965 v 2.93109 h 3.636989 v -1.25006 h 2.800345 v 1.25006 h 1.432989 v 2.79982 H 75.80426 v 1.25005 h -2.800345 v -1.25005 h -3.636989 v 4.95009 h 8.29717 c 1.768062,0 3.09259,-1.4224 3.191536,-3.62821 V 95.854574 h -2.944524 v 1.250061 h -2.800345 v -1.250061 h -2.491322 v -2.799818 h 2.491322 v -1.250061 h 2.800345 v 1.250061 h 2.944524 V 67.854733 h -2.944524 v 1.24954 h -2.800345 v -1.24954 h -2.491322 v -2.80034 h 2.491322 v -1.25005 h 2.800345 v 1.25005 h 2.944524 v -3.8592 c 0,-2.20804 -1.423474,-2.3983 -3.191536,-2.3983 z"
       inkscape:connector-curvature="0" />
    <path
       id="path10099-2"
       style="opacity:0.98000004;vector-effect:none;fill:none;fill-opacity:1;fill-rule:evenodd;stroke:#000000;stroke-width:0.2;stroke-linecap:round;stroke-linejoin:round;stroke-miterlimit:4;stroke-dasharray:none;stroke-dashoffset:0;stroke-opacity:1"
       d="m 160.19854,124.64163 c 0.82843,0 1.50016,0.67174 1.50016,1.50018 0,0.82842 -0.67173,1.50016 -1.50016,1.50016 -0.82844,0 -1.50017,-0.67174 -1.50017,-1.50016 0,-0.82844 0.67173,-1.50018 1.50017,-1.50018 z m 0,-15.16127 c 0.82843,0 1.50016,0.67174 1.50016,1.50017 0,0.82843 -0.67173,1.50017 -1.50016,1.50017 -0.82844,0 -1.50017,-0.67174 -1.50017,-1.50017 0,-0.82843 0.67173,-1.50017 1.50017,-1.50017 z m -6.24743,-14.234006 1e-5,36.369856 h 12.49485 v -10.94874 h -7.84736 v -6.32927 h 7.84736 V 95.246354 Z"
       inkscape:connector-curvature="0"
       sodipodi:nodetypes="ssssssssssccccccccc" />
    <path
       id="path10099-0-0"
       style="opacity:0.98000004;vector-effect:none;fill:none;fill-opacity:1;fill-rule:evenodd;stroke:#000000;stroke-width:0.2;stroke-linecap:round;stroke-linejoin:round;stroke-miterlimit:4;stroke-dasharray:none;stroke-dashoffset:0;stroke-opacity:1"
       d="m 146.11618,124.64164 c 0.82843,0 1.50017,0.67174 1.50017,1.50018 0,0.82842 -0.67174,1.50016 -1.50017,1.50016 -0.82844,0 -1.50016,-0.67174 -1.50016,-1.50016 0,-0.82844 0.67172,-1.50018 1.50016,-1.50018 z m 0,-15.16127 c 0.82843,0 1.50017,0.67174 1.50017,1.50017 0,0.82843 -0.67174,1.50017 -1.50017,1.50017 -0.82844,0 -1.50016,-0.67174 -1.50016,-1.50017 0,-0.82843 0.67172,-1.50017 1.50016,-1.50017 z m 6.24742,-14.234016 h -12.49484 v 38.486486 h 12.49484 z m -4.69727,25.421126 h -3.09999 v -6.32927 h 3.09999 z"
       inkscape:connector-curvature="0"
       sodipodi:nodetypes="sssssssssscccccccccc" />
    <path
       style="opacity:1;vector-effect:none;fill:none;fill-opacity:1;fill-rule:evenodd;stroke:#000000;stroke-width:0.2;stroke-linecap:round;stroke-linejoin:round;stroke-miterlimit:4;stroke-dasharray:none;stroke-dashoffset:0;stroke-opacity:1"
       d="m 178.42228,91.519912 v 26.942538 h 2.80034 v 1.25006 h 2.49132 v 2.79983 h -2.49132 v 1.25005 h -2.80034 v 0.70797 h -2.99982 v -1.85725 h -3.30006 v 1.85725 h -2.99982 v 6.32933 h 2.99982 v 4.07417 h 3.30006 v -4.07417 h 2.99982 v 2.82411 h 2.80034 v 1.25006 h 2.49132 v 2.79983 h -2.49132 v 1.25005 h -2.80034 v 2.82463 h -2.99982 v -4.07468 h -3.30006 v 6.19135 h -2.99982 v 1.82159 c 0,1.70699 1.39542,2.82142 3.08095,2.55178 h 3.30781 v -2.64583 h 7.31945 v 2.93109 h 3.6375 v -1.25005 h 2.80035 v 1.25005 h 1.43299 v 2.79983 h -1.43299 v 1.25005 h -2.80035 v -1.25005 h -3.6375 v 4.95008 h 8.29768 c 1.76807,0 3.09259,-1.42239 3.19154,-3.6282 v -7.52822 h -2.79983 v -11.7998 h 2.79983 v -4.38113 h -2.94452 v 1.25006 h -2.80035 v -1.25006 h -2.49132 v -2.79982 h 2.49132 v -1.25006 h 2.80035 v 1.25006 h 2.94452 v -10.989 h -2.79983 v -10.74198 h 2.79983 v -3.82767 h -2.94452 v 1.24953 h -2.80035 v -1.24953 h -2.49132 v -2.800348 h 2.49132 v -1.25005 h 2.80035 v 1.25005 h 2.94452 v -3.85919 c 0,-2.20804 -1.42352,-2.41227 -3.19154,-2.39831 z"
       id="path9507-1-3-1"
       inkscape:connector-curvature="0"
       sodipodi:nodetypes="cccccccccccccccccccccccccccccccccccscccccccccccccccccscccccccccccccccccccccccccccccccccscc" />
    <text
       xml:space="preserve"
       style="font-style:normal;font-variant:normal;font-weight:normal;font-stretch:normal;font-size:16.93333244px;line-height:1.25;font-family:Cambria;-inkscape-font-specification:Cambria;letter-spacing:0px;word-spacing:0px;fill:#000000;fill-opacity:1;stroke:none;stroke-width:0.26458332"
       x="39.341724"
       y="39.218044"
       id="text2308"><tspan
         sodipodi:role="line"
         id="tspan2306"
         x="39.341724"
         y="39.218044"
         style="stroke-width:0.26458332">Digit Long</tspan></text>
    <text
       xml:space="preserve"
       style="font-style:normal;font-variant:normal;font-weight:normal;font-stretch:normal;font-size:16.93333244px;line-height:1.25;font-family:Cambria;-inkscape-font-specification:Cambria;letter-spacing:0px;word-spacing:0px;fill:#000000;fill-opacity:1;stroke:none;stroke-width:0.26458332"
       x="138.25804"
       y="78.934448"
       id="text2312"><tspan
         sodipodi:role="line"
         id="tspan2310"
         x="138.25804"
         y="78.934448"
         style="stroke-width:0.26458332">Dots</tspan></text>
    <text
       xml:space="preserve"
       style="font-style:normal;font-variant:normal;font-weight:normal;font-stretch:normal;font-size:16.93333244px;line-height:1.25;font-family:Cambria;-inkscape-font-specification:Cambria;letter-spacing:0px;word-spacing:0px;fill:#000000;fill-opacity:1;stroke:none;stroke-width:0.26458332"
       x="48.334118"
       y="204.45328"
       id="text2316"><tspan
         sodipodi:role="line"
         id="tspan2314"
         x="48.334118"
         y="204.45328"
         style="stroke-width:0.26458332">Digit Short</tspan></text>
  </g>
</svg>
